<?xml version="1.0" encoding="utf-8"?>
<!-- Generator: Adobe Illustrator 25.2.3, SVG Export Plug-In . SVG Version: 6.00 Build 0)  -->
<svg version="1.1" id="Layer_1" xmlns="http://www.w3.org/2000/svg" xmlns:xlink="http://www.w3.org/1999/xlink" x="0px" y="0px"
	 viewBox="0 0 370 249.1" style="enable-background:new 0 0 370 249.1;" xml:space="preserve">
<style type="text/css">
	.st0{fill:#00A79D;}
</style>
<g id="Layer_2_1_">
	<g id="Layer_1-2">
		<path class="st0" d="M0,249.1c0,0,2.6-0.2,2.7-0.2c2.6-0.2,5.2-0.5,7.8-0.8c4-0.5,8-1.1,12.1-1.7c5.2-0.8,10.4-1.8,15.6-2.9
			c6.2-1.3,12.3-2.7,18.4-4.3c6.9-1.8,13.7-3.7,20.4-5.9c7.3-2.4,14.5-5,21.7-7.9c7.5-3,14.9-6.4,22.2-10
			c21.3-10.8,39.1-24.5,56-41.2c15.5-15.3,30.7-29.6,50.6-39c21.2-10.1,46.3-13,69.6-10.7c12.4,1.3,23.4,4.2,34.3,10.2
			c7.2,4,13.8,9,19.8,14.7c6.9,6.6,12.8,14.2,18,22.2c0.2,0.3,1,1.2,1,1.6c0,0,0-173.1,0-173.1H0C0,0,0,249.1,0,249.1z"/>
	</g>
</g>
</svg>
